<?xml version="1.0" encoding="UTF-8"?>
<svg width="26px" height="26px" viewBox="0 0 26 26" version="1.1" xmlns="http://www.w3.org/2000/svg" xmlns:xlink="http://www.w3.org/1999/xlink">
    <title>ç¼–ç»„ 2</title>
    <g id="ðŸ“±H5-ç”¨æˆ·ç«¯" stroke="none" stroke-width="1" fill="none" fill-rule="evenodd">
        <g id="è¿›å…¥åœ¨çº¿å®¢æœ" transform="translate(-339.000000, -774.000000)">
            <g id="ç¼–ç»„-2" transform="translate(339.000000, 774.000000)">
                <circle id="æ¤­åœ†å½¢" fill="#1890FF" cx="13" cy="13" r="13"></circle>
                <g id="å‘é€" transform="translate(5.000000, 5.000000)" fill="#FFFFFF" fill-rule="nonzero">
                    <rect id="çŸ©å½¢" opacity="0" x="0" y="0" width="16" height="16"></rect>
                    <g transform="translate(1.000000, 1.000000)">
                        <rect id="çŸ©å½¢" opacity="0" x="0" y="0" width="14" height="14"></rect>
                        <path d="M12.5168066,1.95261719 L1.34275586,6.26445313 C0.713056641,6.50742969 0.728820313,6.86054688 1.37487109,7.05225391 L4.07475195,7.85335742 L5.17249414,11.1197051 C5.31621289,11.5473477 5.69165625,11.6375273 6.01280859,11.3193828 L7.42899609,9.91648438 L10.2245527,11.9650781 C10.5877598,12.2312422 10.9611797,12.0911602 11.0592207,11.6493945 L13.0992012,2.45717773 C13.1969688,2.01666992 12.9365879,1.79063281 12.5168066,1.95260352 L12.5168066,1.95261719 Z M10.8163809,4.03091992 L6.0500918,8.27754102 C5.96439648,8.35391211 5.88683594,8.50521875 5.87492773,8.61724609 L5.66451758,10.5955391 C5.64087891,10.8176797 5.56428906,10.8268535 5.49364648,10.6139277 L4.57138281,7.83390234 C4.53528906,7.72515625 4.58472656,7.5918418 4.68105859,7.53407812 L10.7255859,3.90854297 C11.1107773,3.67751562 11.1517793,3.73208008 10.8163672,4.03091992 L10.8163809,4.03091992 Z" id="å½¢çŠ¶"></path>
                    </g>
                </g>
            </g>
        </g>
    </g>
</svg>