<?xml version="1.0" encoding="UTF-8"?>
<svg width="51px" height="50px" viewBox="0 0 51 50" version="1.1" xmlns="http://www.w3.org/2000/svg" xmlns:xlink="http://www.w3.org/1999/xlink">
    <title>Group 36</title>
    <g id="ðŸ“±H5-ç”¨æˆ·ç«¯" stroke="none" stroke-width="1" fill="none" fill-rule="evenodd">
        <g id="æ— å®¢æœæŽ¥å¾…3" transform="translate(-162.000000, -400.000000)">
            <g id="Group-36" transform="translate(162.500000, 400.000000)">
                <rect id="Rectangle-23" fill-opacity="0" fill="#FFFFFF" x="0" y="0" width="50" height="50"></rect>
                <g id="check-circle" fill="#36C626">
                    <path d="M25.0001526,0 C11.1913589,0 0,11.1913589 0,25.0001526 C0,38.8086411 11.1913589,50 25.0001526,50 C38.8086411,50 50,38.8086411 50,25.0001526 C50,11.1913589 38.8086411,0 25.0001526,0 Z M37.710007,17.402426 L20.1561525,35.0146912 L20.1368654,35.0342225 C20.0195557,35.1610537 19.877954,35.2736026 19.7217648,35.3613103 C19.448327,35.5177436 19.1455312,35.5909248 18.852501,35.5909248 C18.2421487,35.5909248 17.646567,35.2736026 17.3242399,34.7021298 L12.0067896,25.4051824 C11.5235126,24.5604548 11.8165427,23.4864178 12.6612093,23.0079016 C13.5059369,22.5243805 14.5800349,22.8174107 15.0585511,23.6621383 L19.2284781,30.9620129 L35.2197085,14.9218932 C35.9032421,14.2333548 37.0166467,14.2333548 37.7052462,14.9168883 C38.3935405,15.6054878 38.3935405,16.7188925 37.710007,17.402426 Z" id="Fill-1"></path>
                </g>
            </g>
        </g>
    </g>
</svg>