<?xml version="1.0" encoding="UTF-8"?>
<svg width="14px" height="14px" viewBox="0 0 14 14" version="1.1" xmlns="http://www.w3.org/2000/svg" xmlns:xlink="http://www.w3.org/1999/xlink">
    <title>poweroff</title>
    <g id="📱H5-用户端" stroke="none" stroke-width="1" fill="none" fill-rule="evenodd">
        <g id="超出等待时长，自动转接" transform="translate(-20.000000, -730.000000)" fill="#000000" fill-rule="nonzero">
            <g id="poweroff" transform="translate(20.000000, 730.000000)">
                <rect id="矩形" opacity="0" x="0" y="0" width="14" height="14"></rect>
                <path d="M9.646875,1.70761719 C9.57441406,1.67070313 9.48828125,1.72402344 9.48828125,1.80605469 L9.48828125,2.68378906 C9.48828125,2.75898438 9.52792969,2.82871094 9.59082031,2.86972656 C9.89707031,3.0625 10.1814453,3.28945313 10.4412109,3.55058594 C10.8882813,3.99902344 11.2396484,4.51992188 11.484375,5.09960938 C11.7373047,5.69980469 11.8658203,6.33691406 11.8658203,6.99589844 C11.8658203,7.65351563 11.7373047,8.29199219 11.484375,8.8921875 C11.2396484,9.471875 10.8882813,9.99277344 10.4412109,10.4412109 C9.99414063,10.8896484 9.47324219,11.2410156 8.89355469,11.4857422 C8.29472656,11.7400391 7.65625,11.8685547 7,11.8685547 C6.34375,11.8685547 5.70527344,11.7400391 5.10644531,11.4857422 C4.52675781,11.2410156 4.00585938,10.8896484 3.55878906,10.4412109 C3.11171875,9.99277344 2.76035156,9.471875 2.515625,8.8921875 C2.26269531,8.29199219 2.13417969,7.65488281 2.13417969,6.99589844 C2.13417969,6.33828125 2.26269531,5.69980469 2.515625,5.09960938 C2.76035156,4.51992188 3.11171875,3.99902344 3.55878906,3.55058594 C3.81855469,3.29082031 4.10292969,3.06386719 4.40917969,2.86972656 C4.4734375,2.83007812 4.51171875,2.75898438 4.51171875,2.68378906 L4.51171875,1.8046875 C4.51171875,1.72265625 4.42558594,1.67070313 4.353125,1.70625 C2.44042969,2.66875 1.12109375,4.63886719 1.09375,6.92207031 C1.05546875,10.1869141 3.72558594,12.8994141 6.9890625,12.9062632 C10.2566406,12.9130859 12.90625,10.2634766 12.90625,6.99453125 C12.90625,4.68125 11.5800781,2.67832031 9.646875,1.70761719 Z M6.5625,7.65625 L7.4375,7.65625 C7.49765625,7.65625 7.546875,7.60703125 7.546875,7.546875 L7.546875,1.203125 C7.546875,1.14296875 7.49765625,1.09375 7.4375,1.09375 L6.5625,1.09375 C6.50234375,1.09375 6.453125,1.14296875 6.453125,1.203125 L6.453125,7.546875 C6.453125,7.60703125 6.50234375,7.65625 6.5625,7.65625 Z" id="形状"></path>
            </g>
        </g>
    </g>
</svg>