<?xml version="1.0" standalone="no"?><!DOCTYPE svg PUBLIC "-//W3C//DTD SVG 1.1//EN" "http://www.w3.org/Graphics/SVG/1.1/DTD/svg11.dtd"><svg t="1702018228259" class="icon" viewBox="0 0 1024 1024" version="1.1" xmlns="http://www.w3.org/2000/svg" p-id="4736" width="64" height="64" xmlns:xlink="http://www.w3.org/1999/xlink"><path d="M874.048 660.309333A384.192 384.192 0 0 1 568.021333 913.066667 53.205333 53.205333 0 0 1 522.666667 938.666667h-42.666667a53.333333 53.333333 0 0 1 0-106.666667h42.666667a53.013333 53.013333 0 0 1 39.189333 17.408 320.32 320.32 0 0 0 244.117333-189.696A74.666667 74.666667 0 0 1 746.666667 586.666667v-64a74.666667 74.666667 0 0 1 74.666666-74.666667h9.578667a319.616 319.616 0 0 0-637.866667 0h9.6a74.666667 74.666667 0 0 1 74.666667 74.666667v64a74.666667 74.666667 0 0 1-74.666667 74.666666h-42.666666a74.666667 74.666667 0 0 1-74.666667-74.666666v-64a74.538667 74.538667 0 0 1 43.392-67.605334 383.530667 383.530667 0 0 1 766.549333 0A74.538667 74.538667 0 0 1 938.666667 522.666667v64a74.410667 74.410667 0 0 1-64.618667 73.642666zM149.333333 544v21.333333a32 32 0 0 0 64 0v-21.333333a32 32 0 0 0-64 0z m725.333334 0a32 32 0 0 0-64 0v21.333333a32 32 0 0 0 64 0v-21.333333z" fill="#1890ff" p-id="4737"></path><path d="M512 703.765333a161.024 161.024 0 0 0 119.765333-53.994666 31.189333 31.189333 0 0 0-2.368-44.501334 32.32 32.32 0 0 0-45.184 2.325334 95.296 95.296 0 0 1-144.426666 0 32.32 32.32 0 0 0-45.184-2.325334 31.168 31.168 0 0 0-2.368 44.501334A160.938667 160.938667 0 0 0 512 703.765333z" fill="#1890ff" p-id="4738"></path></svg>